<?xml version="1.0"?>
<svg xmlns="http://www.w3.org/2000/svg" xmlns:xlink="http://www.w3.org/1999/xlink" version="1.1" id="Layer_1" x="0px" y="0px" viewBox="0 0 512 512" style="enable-background:new 0 0 512 512;" xml:space="preserve" width="512px" height="512px" class=""><g><g>
	<g>
		<path d="M461.913,434.087C489.531,434.087,512,411.618,512,384V50.087C512,22.469,489.531,0,461.913,0H328.348    c-27.618,0-50.087,22.469-50.087,50.087V384c0,27.618,22.469,50.087,50.087,50.087h16.696v44.522h-50.087    c-9.22,0-16.696,7.475-16.696,16.696S285.736,512,294.957,512c10.634,0,193.859,0,200.348,0c9.22,0,16.696-7.475,16.696-16.696    s-7.475-16.696-16.696-16.696h-50.087v-44.522H461.913z M311.652,50.087c0-9.206,7.49-16.696,16.696-16.696h133.565    c9.206,0,16.696,7.49,16.696,16.696v283.826H311.652V50.087z M411.826,478.609h-33.391v-44.522h33.391V478.609z M328.348,400.696    c-9.206,0-16.696-7.49-16.696-16.696v-16.696h166.957V384c0,9.206-7.49,16.696-16.696,16.696    C447.664,400.696,342.588,400.696,328.348,400.696z" data-original="#000000" class="active-path" data-old_color="#000000" fill="#FFFFFF"/>
	</g>
</g><g>
	<g>
		<path d="M395.13,66.783c-27.618,0-50.087,22.469-50.087,50.087c0,27.618,22.469,50.087,50.087,50.087s50.087-22.469,50.087-50.087    C445.217,89.252,422.748,66.783,395.13,66.783z M395.13,133.565c-9.206,0-16.696-7.49-16.696-16.696s7.49-16.696,16.696-16.696    s16.696,7.49,16.696,16.696S404.336,133.565,395.13,133.565z" data-original="#000000" class="active-path" data-old_color="#000000" fill="#FFFFFF"/>
	</g>
</g><g>
	<g>
		<path d="M395.13,200.348c-27.618,0-50.087,22.469-50.087,50.087c0,27.618,22.469,50.087,50.087,50.087    s50.087-22.469,50.087-50.087C445.217,222.817,422.748,200.348,395.13,200.348z M395.13,267.13    c-9.206,0-16.696-7.49-16.696-16.696c0-9.206,7.49-16.696,16.696-16.696s16.696,7.49,16.696,16.696    C411.826,259.641,404.336,267.13,395.13,267.13z" data-original="#000000" class="active-path" data-old_color="#000000" fill="#FFFFFF"/>
	</g>
</g><g>
	<g>
		<path d="M183.652,434.087c27.618,0,50.087-22.469,50.087-50.087V50.087C233.739,22.469,211.27,0,183.652,0H50.087    C22.469,0,0,22.469,0,50.087V384c0,27.618,22.469,50.087,50.087,50.087h16.696v44.522H16.696C7.475,478.609,0,486.084,0,495.304    S7.475,512,16.696,512c6.621,0,190.022,0,200.348,0c9.22,0,16.696-7.475,16.696-16.696s-7.475-16.696-16.696-16.696h-50.087    v-44.522H183.652z M33.391,50.087c0-9.206,7.49-16.696,16.696-16.696h133.565c9.206,0,16.696,7.49,16.696,16.696v283.826H33.391    V50.087z M133.565,478.609h-33.391v-44.522h33.391V478.609z M50.087,400.696c-9.206,0-16.696-7.49-16.696-16.696v-16.696h166.957    V384c0,9.206-7.49,16.696-16.696,16.696C169.609,400.696,64.551,400.696,50.087,400.696z" data-original="#000000" class="active-path" data-old_color="#000000" fill="#FFFFFF"/>
	</g>
</g><g>
	<g>
		<path d="M116.87,66.783c-27.618,0-50.087,22.469-50.087,50.087c0,27.618,22.469,50.087,50.087,50.087    c27.618,0,50.087-22.469,50.087-50.087C166.957,89.252,144.488,66.783,116.87,66.783z M116.87,133.565    c-9.206,0-16.696-7.49-16.696-16.696s7.49-16.696,16.696-16.696s16.696,7.49,16.696,16.696S126.076,133.565,116.87,133.565z" data-original="#000000" class="active-path" data-old_color="#000000" fill="#FFFFFF"/>
	</g>
</g><g>
	<g>
		<path d="M116.87,200.348c-27.618,0-50.087,22.469-50.087,50.087c0,27.618,22.469,50.087,50.087,50.087    c27.618,0,50.087-22.469,50.087-50.087C166.957,222.817,144.488,200.348,116.87,200.348z M116.87,267.13    c-9.206,0-16.696-7.49-16.696-16.696c0-9.206,7.49-16.696,16.696-16.696s16.696,7.49,16.696,16.696    C133.565,259.641,126.076,267.13,116.87,267.13z" data-original="#000000" class="active-path" data-old_color="#000000" fill="#FFFFFF"/>
	</g>
</g></g> </svg>
